<?xml version="1.0" encoding="UTF-8"?>
<svg xmlns="http://www.w3.org/2000/svg" xmlns:xlink="http://www.w3.org/1999/xlink" width="32px" height="32px" viewBox="0 0 32 32" version="1.1">
<g id="surface1">
<path style=" stroke:none;fill-rule:nonzero;fill:rgb(25.098041%,70.19608%,87.843138%);fill-opacity:1;" d="M 16 0 C 7.164062 0 0 7.164062 0 16 C 0 24.835938 7.164062 32 16 32 C 24.835938 32 32 24.835938 32 16 C 32 7.164062 24.835938 0 16 0 Z M 16 0 "/>
<path style=" stroke:none;fill-rule:nonzero;fill:rgb(100%,100%,100%);fill-opacity:1;" d="M 23.785156 9.203125 L 20.925781 23.613281 C 20.925781 23.613281 20.527344 24.613281 19.429688 24.132812 L 12.835938 19.074219 L 10.4375 17.917969 L 6.398438 16.558594 C 6.398438 16.558594 5.78125 16.339844 5.71875 15.859375 C 5.660156 15.378906 6.417969 15.117188 6.417969 15.117188 L 22.464844 8.824219 C 22.464844 8.824219 23.785156 8.246094 23.785156 9.203125 "/>
<path style=" stroke:none;fill-rule:nonzero;fill:rgb(82.352942%,89.803922%,94.509804%);fill-opacity:1;" d="M 12.328125 23.449219 C 12.328125 23.449219 12.132812 23.433594 11.894531 22.671875 C 11.65625 21.914062 10.4375 17.917969 10.4375 17.917969 L 20.128906 11.761719 C 20.128906 11.761719 20.6875 11.421875 20.667969 11.761719 C 20.667969 11.761719 20.769531 11.820312 20.46875 12.101562 C 20.167969 12.382812 12.855469 18.957031 12.855469 18.957031 "/>
<path style=" stroke:none;fill-rule:nonzero;fill:rgb(70.980394%,81.176472%,89.411765%);fill-opacity:1;" d="M 15.363281 21.015625 L 12.753906 23.394531 C 12.753906 23.394531 12.550781 23.546875 12.328125 23.449219 L 12.828125 19.03125 "/>
</g>
</svg>
