<?xml version="1.0" encoding="UTF-8"?>
<svg xmlns="http://www.w3.org/2000/svg" xmlns:xlink="http://www.w3.org/1999/xlink" width="32px" height="32px" viewBox="0 0 32 32" version="1.1">
<g id="surface1">
<path style=" stroke:none;fill-rule:evenodd;fill:rgb(20.392157%,36.862746%,56.470591%);fill-opacity:1;" d="M 31.191406 20.671875 C 31.191406 20.671875 31.191406 11.363281 31.191406 11.363281 C 31.191406 2.863281 29.183594 0.839844 20.679688 0.839844 C -0.117188 0.707031 0.703125 -0.140625 0.839844 20.65625 C 0.839844 29.160156 2.847656 31.179688 11.351562 31.179688 L 18.410156 31.179688 C 27.449219 31.335938 31.417969 30.714844 31.191406 20.671875 Z M 25.34375 22.492188 L 23.128906 22.492188 C 22.292969 22.492188 22.039062 21.8125 20.535156 20.308594 C 19.226562 19.046875 18.671875 18.886719 18.339844 18.886719 C 17.882812 18.886719 17.753906 19.011719 17.753906 19.644531 L 17.753906 21.636719 C 17.753906 22.171875 17.582031 22.488281 16.175781 22.488281 C 13.835938 22.488281 11.257812 21.066406 9.425781 18.445312 C 6.675781 14.605469 5.929688 11.695312 5.929688 11.113281 C 5.929688 10.78125 6.058594 10.480469 6.691406 10.480469 L 8.902344 10.480469 C 9.472656 10.480469 9.675781 10.734375 9.898438 11.316406 C 10.804688 14.292969 13.914062 19.238281 13.960938 16.390625 C 13.960938 16.390625 13.960938 13.132812 13.960938 13.132812 C 13.867188 11.648438 13.074219 11.523438 13.074219 10.984375 C 13.074219 10.75 13.296875 10.480469 13.644531 10.480469 L 17.121094 10.480469 C 17.597656 10.480469 17.753906 10.71875 17.753906 11.285156 L 17.753906 15.679688 C 17.816406 16.730469 18.46875 16.316406 19.128906 15.632812 C 20.726562 13.863281 21.847656 11.113281 21.847656 11.113281 C 21.992188 10.78125 22.242188 10.480469 22.8125 10.480469 L 25.027344 10.480469 C 25.691406 10.480469 25.832031 10.8125 25.691406 11.285156 C 25.421875 12.582031 22.71875 16.375 22.71875 16.390625 C 22.480469 16.753906 22.386719 16.945312 22.71875 17.371094 C 23.355469 18.164062 27.996094 22.355469 25.34375 22.492188 Z M 25.34375 22.492188 "/>
</g>
</svg>
